<?xml version="1.0" encoding="UTF-8"?>
<!DOCTYPE svg PUBLIC "-//W3C//DTD SVG 1.1//EN" "http://www.w3.org/Graphics/SVG/1.1/DTD/svg11.dtd">
<!-- Creator: CorelDRAW 2020 (64-Bit) -->
<svg xmlns="http://www.w3.org/2000/svg" xml:space="preserve" width="32.4739in" height="7.57008in" version="1.1" style="shape-rendering:geometricPrecision; text-rendering:geometricPrecision; image-rendering:optimizeQuality; fill-rule:evenodd; clip-rule:evenodd"
viewBox="0 0 1916.11 446.67"
 xmlns:xlink="http://www.w3.org/1999/xlink"
 xmlns:xodm="http://www.corel.com/coreldraw/odm/2003">
 <defs>
  <style type="text/css">
   <![CDATA[
    .fil0 {fill:white}
    .fil1 {fill:white;fill-rule:nonzero}
   ]]>
  </style>
 </defs>
 <g id="Layer_x0020_1">
  <metadata id="CorelCorpID_0Corel-Layer"/>
  <g id="_1734963853120">
   <path class="fil0" d="M223.33 0c123.34,0 223.34,99.99 223.34,223.33 0,46.84 -14.43,90.3 -39.07,126.21 -2.12,34.22 5.73,66.45 21.23,97.13 -36.23,-1.69 -71.15,-8.64 -103.86,-24.41 -30.48,15.61 -65.03,24.41 -101.64,24.41 -123.34,0 -223.33,-99.99 -223.33,-223.34 0,-123.34 99.99,-223.33 223.33,-223.33zm106.7 235.05l-156.66 89.82c-5.53,3.17 -11.86,3.16 -17.38,-0.04 -5.53,-3.2 -8.68,-8.68 -8.68,-15.06l0 -180.36c0,-6.39 3.17,-11.87 8.7,-15.07 5.53,-3.19 11.87,-3.19 17.4,0l7 4.05 36.41 21.04 113.24 65.44c5.54,3.2 8.71,8.7 8.7,15.09 -0.01,6.4 -3.2,11.89 -8.75,15.07z"/>
   <g>
    <path class="fil1" d="M601.34 334.68c0,12.93 9.98,22.91 22.91,22.91l139.69 0c11.46,0 20.7,-9.24 20.7,-20.69 0,-11.46 -9.24,-20.69 -20.7,-20.69l-117.15 0 0 -196.6c0,-12.56 -9.98,-22.54 -22.54,-22.54 -12.94,0 -22.91,9.98 -22.91,22.54l0 215.08zm209.74 2.22c0,12.57 9.98,22.54 22.91,22.54 12.56,0 22.54,-9.98 22.54,-22.54l0 -217.29c0,-12.56 -9.98,-22.54 -22.54,-22.54 -12.94,0 -22.91,9.98 -22.91,22.54l0 217.29zm92.96 0.37c0,12.2 9.98,22.17 22.54,22.17 12.19,0 22.17,-9.98 22.17,-22.17l0 -164.08 133.04 172.21c6.28,8.13 12.93,13.67 23.65,13.67l1.85 0c12.56,0 22.17,-9.98 22.17,-22.54l0 -217.29c0,-12.19 -9.98,-22.17 -22.54,-22.17 -12.19,0 -22.17,9.98 -22.17,22.17l0 158.9 -129.34 -167.4c-6.28,-7.76 -12.56,-13.3 -23.65,-13.3l-4.8 0c-12.94,0 -22.91,10.35 -22.91,22.91l0 216.92zm393.03 24.76c38.8,0 69.84,-13.3 92.02,-28.09 10.72,-6.65 15.89,-15.89 15.89,-28.82l0 -69.11c0,-12.93 -9.98,-22.91 -22.91,-22.91l-72.06 0c-11.09,0 -20.33,8.87 -20.33,19.96 0,11.09 9.24,19.59 20.33,19.59l51 0 0 48.41c-15.89,11.83 -38.06,19.59 -62.45,19.59 -52.85,0 -87.95,-39.17 -87.95,-92.39l0 -0.74c0,-49.52 36.22,-91.28 83.89,-91.28 28.09,0 46.19,8.13 62.82,20.33 3.7,2.59 8.13,5.17 14.04,5.17 12.56,0 22.54,-10.35 22.54,-22.54 0,-8.87 -4.8,-15.15 -9.24,-18.48 -23.65,-17 -49.52,-26.24 -88.32,-26.24 -77.97,0 -133.41,61.34 -133.41,133.78l0 0.74c0,75.39 53.21,133.04 134.15,133.04zm526.65 -0.74c54.32,0 92.39,-28.82 92.39,-77.23l0 -0.74c0,-42.87 -28.09,-62.45 -82.78,-75.76 -49.89,-11.83 -61.71,-20.69 -61.71,-40.65l0 -0.74c0,-17 15.52,-30.67 42.13,-30.67 20.32,0 39.54,6.65 59.5,19.59 3.7,2.22 7.39,3.33 11.83,3.33 11.83,0 21.43,-9.24 21.43,-21.06 0,-8.87 -4.8,-15.15 -9.98,-18.11 -23.28,-15.52 -49.52,-24.02 -82.04,-24.02 -51.37,0 -88.32,30.67 -88.32,75.02l0 0.74c0,47.67 31.04,63.93 86.1,77.23 48.04,11.09 58.39,21.06 58.39,39.54l0 0.74c0,19.22 -17.74,32.52 -45.82,32.52 -28.09,0 -51,-9.61 -72.43,-26.61 -2.96,-2.22 -7.02,-4.06 -13.3,-4.06 -11.83,0 -21.43,9.24 -21.43,21.06 0,7.39 3.7,13.67 8.87,17.37 28.82,21.43 62.08,32.52 97.19,32.52z"/>
    <path class="fil0" d="M1570.31 357.18c75.26,0 136.27,-61.01 136.27,-136.27 0,-75.26 -61.01,-136.27 -136.27,-136.27 -75.26,0 -136.27,61.01 -136.27,136.27 0,75.26 61.01,136.27 136.27,136.27zm0 -229.23c51.34,0 92.96,41.62 92.96,92.96 0,51.34 -41.62,92.96 -92.96,92.96 -51.34,0 -92.96,-41.62 -92.96,-92.96 0,-51.34 41.62,-92.96 92.96,-92.96z"/>
   </g>
  </g>
 </g>
</svg>
