<svg width="14" height="14" viewBox="0 0 14 14" fill="none" xmlns="http://www.w3.org/2000/svg">
<path d="M7.0556 10.075C6.98836 10.075 6.92218 10.0583 6.86304 10.0263L1.58179 7.18253L1.96691 6.46753L7.0556 9.20728L12.1443 6.46753L12.5294 7.18253L7.24816 10.0263C7.18902 10.0583 7.12284 10.075 7.0556 10.075Z" fill="#828282"/>
<path d="M7.0556 12.5125C6.98836 12.5125 6.92218 12.4958 6.86304 12.4638L1.58179 9.62003L1.96691 8.90503L7.0556 11.6448L12.1443 8.90503L12.5294 9.62003L7.24816 12.4638C7.18902 12.4958 7.12284 12.5125 7.0556 12.5125Z" fill="#828282"/>
<path d="M7.05551 7.63735C6.98827 7.63733 6.9221 7.62058 6.86295 7.5886L1.5817 4.74485C1.51721 4.71004 1.46333 4.65843 1.42578 4.59549C1.38823 4.53256 1.36841 4.46064 1.36841 4.38735C1.36841 4.31406 1.38823 4.24214 1.42578 4.1792C1.46333 4.11626 1.51721 4.06466 1.5817 4.02985L6.86295 1.1861C6.92211 1.15417 6.98828 1.13745 7.05551 1.13745C7.12274 1.13745 7.18891 1.15417 7.24808 1.1861L12.5293 4.02985C12.5938 4.06466 12.6477 4.11626 12.6852 4.1792C12.7228 4.24214 12.7426 4.31406 12.7426 4.38735C12.7426 4.46064 12.7228 4.53256 12.6852 4.59549C12.6477 4.65843 12.5938 4.71004 12.5293 4.74485L7.24808 7.5886C7.18893 7.62058 7.12275 7.63733 7.05551 7.63735ZM2.63145 4.38735L7.05551 6.7696L11.4796 4.38735L7.05551 2.0051L2.63145 4.38735Z" fill="#828282"/>
</svg>
