<svg 
          width="103.76231384277344" 
          height="49.95555114746094" fill="none" 
          xmlns="http://www.w3.org/2000/svg">
          <path d="M 103.74487778964908 34.776282545253466 L 103.74487778964908 34.729050218671695 C 103.60404455362185 31.064456623068814 102.09748692418874 27.58648593751231 99.52341677634274 24.983599870797516 L 79.04703832401059 4.2926714307642415 L 79.03658094742654 4.280426259914065 L 78.9459485773271 4.189461656947211 C 77.60145120643517 2.8523763345349424 76.00768057597843 1.7942120642801922 74.25566092510032 1.0754040194087138 C 72.5036412742222 0.35659597453723546 70.62769576006528 -0.008774476954040355 68.73496395570787 0.00015998103042714397 C 66.84223215135046 0.009094439014894642 64.96979143413647 0.3921587700783459 63.224586065955826 1.1274751069976217 C 61.479380697775184 1.8627914439168975 59.895598281494536 2.935954964081499 58.56369183336456 4.285673999617923 L 51.88638560967875 11.03804057314234 L 45.20210602856583 4.282175617700645 L 45.11147365846638 4.189461656947211 C 42.39792190073929 1.4945901670961868 38.729845967826236 -0.009568286206704791 34.912414488679005 0.007158163350503414 C 31.094983009531774 0.023884612907711617 27.440136043633235 1.5601291909269106 24.750131667671926 4.2786769021274855 L 24.750131667671926 4.2926714307642415 L 24.7379296219528 4.280426259914065 L 24.7379296219528 4.289172715191082 L 4.251096452593217 24.99059863656736 C 3.1657412078394045 26.088571390041032 2.260396431454648 27.35205147427392 1.5686703169651222 28.734137549318678 L 1.5686703169651222 28.744633028726394 C 1.5372969093791526 28.798861879327553 1.507666391830336 28.85833868338087 1.4780359521982167 28.919564803513783 L 1.3943736150801085 29.10849144059381 C 1.3577713088270338 29.18546142108319 1.3141971099807712 29.283422574136303 1.28805260365913 29.34289937818962 C 1.2619080973374888 29.40237618224294 1.2357635832241776 29.45835434892369 1.2113620448563867 29.51783115297701 C 1.1869605064885957 29.577307957030328 1.138157489489149 29.69276410077336 1.1050411165465521 29.773232718635303 C 1.0910973807074178 29.806469755427837 1.0771536409724487 29.83970711284282 1.0649528717885532 29.874693468321635 L 1.0004630289266288 30.039129763701307 C 0.9586318214092259 30.140590190158505 0.9202866147301052 30.243798983861385 0.8836843084770306 30.347008726398176 C 0.7634195845919269 30.67588046216433 0.6553555974254281 31.008250308752352 0.5629783504130396 31.344119308836884 C 0.5281190095165922 31.478816772086617 0.48454481846199926 31.638006401717302 0.44794251220892467 31.783199771871345 C 0.4113402059558501 31.92839314202539 0.3799668113559967 32.07008713972126 0.34685043841339985 32.217029825954896 C 0.313734065470803 32.36397251218853 0.28410362843590714 32.51966179967364 0.2579591221142658 32.65435926292337 C 0.23181461579262447 32.7890567261731 0.20915604927451906 32.92375377235299 0.18824044551581762 33.05845123560272 C 0.18104704678980651 33.087732289256586 0.1763818593588699 33.117580213826336 0.17429670188501356 33.147665479815345 C 0.15686703143678987 33.25962181317686 0.13943735839134294 33.378575421283486 0.12375065459835814 33.49752902939012 C 0.10457801749489558 33.65321830644848 0.08714835094250678 33.810657337509774 0.07146164714952198 33.96809593064773 C 0.06100384527017126 34.07830294792964 0.052289010695365234 34.19026088701008 0.04357417547125339 34.300467904292 L 0.04357417547125339 34.36169242391936 C 0.04357417547125339 34.46315285037655 0.026144506321641333 34.5646132872605 0.026144506321641333 34.66782302979729 L 0.026144506321641333 34.762287682960824 C 0 34.963459219795624 0 35.166378592112046 0 35.367550128946846 C 0 35.60020939692133 0 35.834617960121925 0.01742967044822368 36.06727722809641 C 0.02176353027144026 36.12025072972375 0.02176353027144026 36.17349228214488 0.01742967044822368 36.22646578377222 C 0.017429670448223314 36.306934401634166 0.017429671746835303 36.390902506648494 0.0313734075859696 36.467872487137875 C 0.045317143425103894 36.544842467627255 0.052289012643282666 36.62356208742537 0.052289012643282666 36.70053206791475 L 0.052289012643282666 36.791494668946314 C 0.052289012643282666 36.8667153333561 0.0679757131897384 36.94368488634889 0.07669054841385024 37.02065486683827 C 0.07669054841385024 37.06613712661471 0.08191944513303782 37.11162184710328 0.09237724701238854 37.15710410687972 C 0.10457801619628396 37.251567269018544 0.13595142767808843 37.33203524563559 0.15163813147107325 37.43524498817238 C 0.16732483526405806 37.53845473070917 0.1830115325639847 37.653908851663424 0.20044120301220839 37.76236655286574 C 0.1986971398417785 37.77396298980818 0.1986971398417785 37.78575593703137 0.20044120301220839 37.79735237397381 C 0.21961384011567095 37.907559391255724 0.23704351705695276 38.007270397365865 0.2597020874708931 38.12797332155209 C 0.2823606578848334 38.24867624573832 0.30850516031063985 38.376376444669674 0.3294207640693413 38.47783687112687 C 0.3503363678280427 38.57929729758406 0.374737904897222 38.68075869372867 0.3973964753111623 38.782219120185864 C 0.46885812246068426 39.08485109390461 0.5507775929166489 39.3804851568467 0.6414118745724101 39.672621213234386 C 0.7006727538366483 39.8685448018304 0.7651625603374472 40.055721372105104 0.8331382715792682 40.25164496070112 C 0.9011139828210892 40.44756854929714 0.974318558966113 40.639994777797014 1.0527520727365904 40.83241973423384 C 1.0980692135644712 40.94262675151575 1.1433863491979053 41.052834623790865 1.1904464605768597 41.161292324993184 C 1.237506571955814 41.2697500261955 1.2880525984646833 41.38520510641042 1.3351127098436377 41.48666553286761 C 1.382172821222592 41.588125959324806 1.429232875462635 41.68783461941703 1.4780359521982167 41.78754572979464 C 1.4780359521982167 41.806788224916986 1.4954657622471903 41.826031040661775 1.505923564126541 41.84527353578412 C 1.547754771643944 41.929240785805256 1.5983006890694367 42.020207234306206 1.6383889312302122 42.10417448432734 C 1.6784771733909878 42.18814173434847 1.713336519481882 42.24586858629066 1.7621395962174635 42.33858242192314 C 1.8109426729530451 42.43129625755562 1.8614888241286307 42.5135139881756 1.9120348662208395 42.606227823808084 C 2.025327718290541 42.80914867672248 2.145592431786752 43.01032065148062 2.274571992843885 43.20799355615623 C 2.339061773372451 43.30770466653384 2.4035515746788034 43.40741524514738 2.4715272859206245 43.505377039445385 C 2.5081295921736992 43.57010179695086 2.5464748014500427 43.62433064755202 2.584820075656968 43.680308814232774 C 2.647566890828907 43.78176924068997 2.694626976235629 43.835998414520276 2.7800323618215086 43.9567013387065 C 2.865437747407388 44.07740426289273 2.9543291883732383 44.18411264801546 3.0397345739591177 44.30656488828128 C 3.125139959544997 44.4290171285471 3.2297179121093116 44.54971866597607 3.3273240655804748 44.66867227408271 C 3.424930219051638 44.787625882189346 3.510335625415304 44.887342435328506 3.6044558481732127 44.994050820451235 C 3.616656617357108 45.00804536212142 3.628857267068734 45.0237892224779 3.642801002907868 45.03778376414809 C 3.832784413780313 45.25644848263232 4.027996637611496 45.473362592120424 4.235409722827999 45.68153141412709 L 4.3086143509174875 45.753254082409214 C 6.3660061200118365 47.80764841723146 8.996659332034278 49.18633211983883 11.852175728180923 49.70671326030304 C 11.977669358524802 49.72945439019126 12.104905995780879 49.752194667692976 12.232142591481384 49.771437162815324 L 12.504045020892947 49.81166805438019 L 12.678341722777962 49.83441003926161 L 12.852638424662976 49.857152024143026 L 13.007762382958372 49.874646269320586 C 13.265721505072637 49.90088603658137 13.530653070391422 49.92187891652481 13.788612192505687 49.935873458195 C 13.9629088943907 49.95161731855147 14.112804164394076 49.95161667730657 14.28710086627909 49.95161667730657 L 14.681011784877146 49.95161667730657 C 14.776803705185692 49.95686332871878 14.87280835885623 49.95686332871878 14.968600279164775 49.95161667730657 C 15.063620252778854 49.94288550763962 15.159045123108768 49.93938205636863 15.254446763873933 49.94112119789885 C 15.493233246287513 49.9288759736116 15.730277449011403 49.911383223368794 15.967320966068357 49.88689277479429 C 16.07887085278143 49.87639686854165 16.19216376718449 49.862402112471486 16.303713653897564 49.8484075708013 L 16.362973894244885 49.8484075708013 C 16.46580894378593 49.83616234651405 16.572130682429417 49.8169198513917 16.67147980125721 49.804674627104454 C 16.770828920085002 49.792429402817206 16.845776451197754 49.77668554376408 16.945125570025546 49.76094168340761 L 17.24665811961077 49.70671326030304 L 17.286746946146778 49.70671326030304 L 17.46104364803179 49.67172476994792 L 17.708544645561716 49.61749634684336 C 17.80440783367625 49.596504534338074 17.898528897934494 49.573760840773616 17.992649120692402 49.54927039219911 L 18.22446272356796 49.48979422939069 L 18.316839762802488 49.46530655693739 L 18.588743521992356 49.38658512288542 C 18.608367538316166 49.38236969981624 18.627607227932284 49.37651727692689 18.646261752761205 49.36909087770786 C 18.728181202439384 49.346349747819644 18.804870685991702 49.32011126304865 18.89027607157758 49.29387149578787 C 18.97568145716346 49.267631728527085 19.06457372924075 49.2396443551731 19.14997911482663 49.20815663446016 C 19.235384500412508 49.17666891374722 19.301617407325544 49.157424283748576 19.374822019831694 49.129435200408196 L 19.48114178458551 49.090949996415205 C 19.552603431735033 49.0664595478407 19.62406566585701 49.03847195813174 19.695527313006533 49.01048287479136 L 19.79139103095461 48.973748696864355 L 20.06503679972295 48.861789798523255 C 20.171357790366145 48.81805685482641 20.27419203996243 48.77257651357128 20.378770065248993 48.72709425379484 L 20.422344240720246 48.706103294979414 C 20.504263690398425 48.667618304734724 20.596641155577565 48.629129255879036 20.678560605255743 48.58714563086847 L 20.763965616841475 48.546914739303595 L 21.011467944149707 48.42446036155478 L 21.048070091972164 48.405220428805336 C 21.145676245443326 48.356239531656335 21.241538737502033 48.30550653969984 21.337401925616568 48.254776326471244 L 21.612791033741683 48.097338796861415 L 21.673794613445775 48.062350306506296 C 21.76094296438828 48.013369409357296 21.834147582088878 47.96964094916136 21.935239666273297 47.908414829028445 C 22.036331750457716 47.84718870889553 22.135681087452255 47.78421199019323 22.235030206280047 47.72123654876735 C 22.33437932510784 47.658261107341474 22.433729243880393 47.593533576321484 22.531335397351555 47.527059502736414 L 22.822410570352734 47.32413800336375 L 23.109999064640363 47.11422307671534 C 23.20411928739827 47.04425036575771 23.312185045871026 46.96203414180257 23.392361530192577 46.897309384297095 C 23.47253801451413 46.83258462679162 23.55445735510893 46.767859014292945 23.63463383943048 46.699635624628286 L 23.667747978761085 46.673391587614894 C 23.699121386347056 46.64715182035411 23.728752568785023 46.622664575397415 23.75838300841714 46.594675492057036 L 23.915251635847618 46.4617256349005 C 23.95185394210069 46.430237914187565 23.99019911241869 46.39699959751192 24.026801418671763 46.36201324203311 C 24.05103689318215 46.34407972846084 24.073771062271852 46.3241885281043 24.094777026024655 46.302537079224685 L 24.3074192150889 46.10836537168785 C 24.38759569941045 46.03489402857103 24.490430858034873 45.9421769815007 24.544462836034782 45.880950861367786 C 24.59849481403469 45.81972474123487 24.659498658655558 45.765495890633716 24.718759537919794 45.7060190865804 L 33.94602470168486 36.396149818855754 L 33.958226747403984 36.408393655082406 L 39.589752759779714 42.08842859596871 C 42.86613434830549 45.41560801024645 47.30487947429139 47.33122429124201 51.96482125317229 47.42909813593501 L 52.83630476259736 47.42909813593501 C 53.123894316552075 47.42909813593501 53.409736022370446 47.40810973949248 53.69732557632516 47.38886724437013 C 53.98491513027988 47.369624749247784 54.270765770546234 47.34338476823871 54.556612359144324 47.306649096680296 C 54.741366853169104 47.28565728417501 54.9156631394984 47.26291551173855 55.08995984138341 47.23492642839817 C 55.624469716082636 47.15562402125595 56.15374815982208 47.05124657176134 56.67780024238154 46.92179705675039 C 56.96016090026637 46.85532298316532 57.23903519110445 46.77660219035826 57.5161669529194 46.696133572496315 C 57.79329871473435 46.61566495463437 58.070430455771515 46.521202006243854 58.34407628687321 46.428488170611374 C 58.462598045401684 46.388253861680404 58.577633862828016 46.34627002292153 58.692669690643235 46.302537079224685 C 58.73624386611449 46.2885425375545 58.77981804158574 46.271049573563396 58.823392217057 46.253556395823985 L 59.09703931560364 46.146850575680844 L 59.208591757984394 46.10136660591801 C 59.306197911455556 46.06288161567332 59.40205641417935 46.02264687924575 59.497919602293884 45.98066325423518 L 59.642588843561846 45.917690377788894 L 59.860459720918115 45.81972901098748 C 59.945865106503994 45.78124402074279 60.034754719024676 45.74100928431522 60.120160104610555 45.69902565930465 L 60.17768099493601 45.67103593471938 L 60.49664161897577 45.51534409268143 C 60.670938320860785 45.42088093054261 60.833032977026676 45.34041616536343 61.00732967891169 45.24595300322461 C 61.1084217630961 45.18472688309169 61.20951576922573 45.12874871641094 61.30886488805352 45.07102122843722 L 61.34198168694073 45.05352698325966 L 61.70626115558682 44.83835897841329 L 62.08797135824406 44.60394837157043 C 62.21172201284242 44.523479753708486 62.33547182594044 44.44301124532738 62.45747951518217 44.36079331138584 C 63.41268694708306 43.716860357271656 64.30448099165926 42.982901290771245 65.12073290722066 42.168898386839615 L 65.20788125816316 42.08143249944592 L 69.4851238117731 37.77636141515838 L 69.47466643518905 37.77636141515838 L 70.320006503154 36.924444526102846 L 70.33220322975991 36.91219802062914 L 79.04703832401059 45.700771346876536 L 79.11850061007704 45.774245041224646 L 79.26142518220992 45.91244263808503 C 79.32940089345173 45.9789167116701 79.39737533205417 46.045389930261976 79.46709401384706 46.10836537168785 L 79.61524727427197 46.24656296854824 L 79.69368291776551 46.31653461076438 C 79.76863050082274 46.38475800042904 79.84357425037844 46.44948361292771 79.91852183343566 46.51420837043318 L 79.97952674291805 46.56668576747176 C 80.05098839006757 46.62266393415251 80.1224483386331 46.68389005428543 80.19565295113925 46.74161754225915 C 80.21243586494951 46.757660315275096 80.2305125946122 46.7722874789233 80.24968982230776 46.785350485955995 L 80.4483852965178 46.94453904163181 C 80.48673057072472 46.97602676234475 80.5250781850298 47.00576687175111 80.56516642719058 47.03375595509149 C 80.6366280743401 47.089734121772246 80.70983098826224 47.14221237380402 80.78129263541176 47.196441224405184 C 80.85275428256128 47.25067007500635 80.97476431449839 47.334636047751054 81.07237046796955 47.402859437415714 L 81.37215568886309 47.61802744226208 L 81.38435773458221 47.61802744226208 C 81.48196388805337 47.68100288368796 81.57957046746915 47.743974263896156 81.67891958629694 47.80520038402907 L 81.98393881459572 47.99063297671828 L 82.29244738116465 48.16556475150567 C 82.49811748024673 48.28276904353271 82.70901585206514 48.389472934727785 82.91817190263826 48.49443200377092 C 83.12732795321139 48.59939107281405 83.33997055783136 48.69910261068825 83.556098469831 48.790067130241134 C 83.6484757168434 48.8303014391721 83.74259338393361 48.87053809672768 83.83671360669152 48.90727376828609 C 84.77449254858215 49.276268353671995 85.74923193043706 49.542543639386636 86.74398131754637 49.701465520599186 C 86.90084834508733 49.729454603939566 87.05597284360516 49.75394377263096 87.21283987114612 49.77668490251918 C 87.43942557528553 49.809921939311714 87.66775661344916 49.83791123770373 87.8960852829452 49.858903050209015 C 88.12441395244123 49.8798948627143 88.3632004348548 49.89738782735708 88.59327209048524 49.90788373360972 L 88.89131796135692 49.91837921301744 L 89.67565311983948 49.91837921301744 L 89.93535350353191 49.90788373360972 L 90.14276700430415 49.89563722813602 L 90.52622187609646 49.89563722813602 L 90.65519973337514 49.8851417487283 L 90.67436981740815 49.8851417487283 L 91.02296322117817 49.84665654473531 C 91.14148497970665 49.83441132044806 91.2512919010631 49.81516711664266 91.3715566249482 49.801172574972476 C 91.4918213488333 49.78717803330229 91.60685717664852 49.7679359643732 91.72015002871822 49.746944151867915 C 91.79161167586774 49.734698927580666 91.86308055888125 49.72245712065951 91.93454220603077 49.70671326030304 C 91.97708281650955 49.696742504947665 92.0201405938736 49.68914958537691 92.06352006330945 49.68397127542163 C 92.74060477844756 49.55519910270357 93.40712295051397 49.37568164489514 94.05747475840306 49.146929445585755 L 94.09059155729027 49.13468294011205 L 94.14113377107542 49.11544300736261 C 94.29800079861637 49.06296347284104 94.45312188957729 49.00173735270813 94.60650298640499 48.94051123257522 L 94.79474640314422 48.86354082458924 L 94.8557459935134 48.839047813641834 L 94.87143737750267 48.839047813641834 C 94.93941308874449 48.81280804638105 95.00738582876292 48.78307135434079 95.07536154000474 48.75333295231413 L 95.11196767716211 48.737589733202554 C 95.1938871268403 48.699104742957864 95.28625927290621 48.66061740408857 95.36817872258439 48.6203830951576 L 95.39781682142787 48.608141928178 C 95.42525276064961 48.598154703125175 95.45154871885066 48.58525289098354 95.47625246492142 48.56965672418501 L 95.51284796385235 48.55216247900745 L 95.70805941890545 48.45594679977793 C 95.81438040954865 48.40346726525636 95.92070266763677 48.34923969714499 96.02528069292335 48.293261530464235 L 96.08454625238389 48.261775092241095 L 96.14554584275307 48.23028865401795 C 96.31984254463808 48.14107345054466 96.48193762674858 48.04486011733305 96.64577652610494 47.94514900695545 C 96.74861157564598 47.88392288682253 96.85144833935438 47.82094445813384 96.95254042353879 47.756219700628364 L 96.98914656069616 47.733483054241056 C 97.01877700032827 47.715989876501645 97.04666277082532 47.696746100192854 97.07455024250359 47.677503605070505 L 97.13032646369396 47.6407694271435 L 97.15995392431101 47.62327518196594 L 97.3220485804769 47.514818335756814 L 97.33947399537483 47.50257183028312 C 97.43533718348937 47.43784707277764 97.53120291688269 47.37137043421298 97.6253231396406 47.30314704454832 L 97.64101452362988 47.2926515651406 L 97.77870508835753 47.194690198339195 L 97.84319401699688 47.14570951493849 C 97.94080017046804 47.07398748790126 98.03841398055334 46.998768747226165 98.13427716866788 46.92354808281638 L 98.14473454525192 46.92354808281638 C 98.33471795612436 46.778354712662335 98.5281787788178 46.62441389669038 98.70247548070282 46.46347666096649 C 98.79543372655631 46.383008043104546 98.88781565895944 46.30078946791811 98.97961191751962 46.216822217896976 L 99.03886683875372 46.162593794792414 L 99.17482337257272 46.03489167733974 L 99.39618358819914 45.8179779849215 L 99.44498113284921 45.76899730152079 L 99.53387415292678 45.68153141412709 C 99.68376931904123 45.52934076922792 99.82843557869691 45.37714755934917 99.96961590763932 45.219708966211215 C 99.99750337931759 45.191719882870835 100.02190704481121 45.163734214289875 100.04805155113286 45.135745130949495 C 100.12822803545441 45.04478061139661 100.20840366788674 44.960810363685916 100.28683718165722 44.85934993722872 L 100.29729455824126 44.848854457821005 L 100.39838962403797 44.726400080072196 C 100.40855602785753 44.7165532798318 100.41734401127727 44.705372734518875 100.42452774638487 44.69316261578306 C 100.47855972438478 44.628437858277586 100.53085468986374 44.56371395576531 100.58314370250703 44.49723988218024 L 100.62846254711336 44.43776371937182 C 100.68249452511327 44.37128964578675 100.7347771537818 44.30306465040316 100.78532319587401 44.23659057681809 L 100.8254080330751 44.184113179779516 C 100.89861264558125 44.08965001764069 100.97007983001076 43.9934359441301 101.03805554125258 43.89547414983209 C 101.16180619585093 43.72928896586942 101.27509905830952 43.5666042283198 101.3866489450226 43.39167245353241 C 101.44939576019453 43.300707933979524 101.50517070355107 43.21673992801928 101.56094564690761 43.125775408466396 L 101.62717924468203 43.01906691907621 C 101.6759823214176 42.93859830121426 101.72478837457103 42.858129792833154 101.77184848594999 42.77591185889162 L 101.8049652848372 42.71818405290213 C 101.83633869242317 42.667453839673534 101.86421722705624 42.61672447622476 101.89384766668836 42.56599426299616 L 101.94440051869992 42.47328063589861 L 101.97577264845205 42.415552829909124 C 102.022832759831 42.33683353334015 102.06814436857337 42.240621586885794 102.11171854404462 42.16190229031682 L 102.14135664288811 42.10417448432734 C 102.18493081835936 42.02720450383796 102.22850158887093 41.92924228204335 102.2685898310317 41.85227230155397 C 102.30867807319248 41.775302321064586 102.32436137202579 41.7350680147403 102.35224884370406 41.67734052676658 C 102.38013631538233 41.619613038792856 102.41151525505381 41.55138964912819 102.43417382546775 41.50240875197919 C 102.45683239588169 41.45342785483019 102.47949181948348 41.406195955745005 102.50040742324218 41.357215058596005 L 102.57884306673571 41.182283283808616 C 102.62416020756359 41.075574898685886 102.67121478685704 40.96711784394184 102.71478896232829 40.86040945881911 L 102.71478896232829 40.85166233623033 L 102.72873567718248 40.81667651512227 C 102.79322545771105 40.67148314496822 102.85074336642421 40.524539708008845 102.9030323790675 40.37584769526887 C 102.96926512495268 40.19508486688283 103.03200427831604 40.01315666191677 103.09126515758028 39.83006141209127 C 103.14006823431586 39.67962008327169 103.1836458147468 39.53092679846867 103.2254770222642 39.380485469649095 C 103.25162152858584 39.28427299143068 103.27602178911978 39.20555316309764 103.30042332748758 39.10934068487923 C 103.33179673507355 38.99038707677259 103.3614288758869 38.87143560614895 103.38931634756517 38.750732681962724 C 103.43986238965738 38.542563859956054 103.48344167386676 38.3326437199345 103.52527288138417 38.122725581848236 C 103.5880196965561 37.79735247824127 103.63856658794032 37.46848159746831 103.6786548301011 37.13960986170216 L 103.6786548301011 37.097625274824246 L 103.70479295244799 36.847474118116864 L 103.70479295244799 36.76000823072317 C 103.72079140484355 36.64750833022375 103.73067984084473 36.53421811363532 103.73442041306504 36.420640160556104 C 103.74662118224893 36.245708385768715 103.76231384277345 36.09701637302874 103.76231384277345 35.89584483619394 L 103.76231384277345 35.29233074702685 C 103.76231384277345 35.11564965615987 103.75707855883297 34.94596637180207 103.74487778964908 34.776282545253466 Z M 21.128246415265874 42.0586905145645 L 21.056784129199432 42.130413182846624 C 19.292955049646512 43.88192905566768 16.908143770497247 44.858538688143184 14.426915086958505 44.84541646761828 C 11.945686403419762 44.83229424709337 9.57126202260442 43.83051602089102 7.8259221805927695 42.060441540630485 L 7.8259221805927695 42.060441540630485 C 6.166417201003675 40.38025195290435 5.1870033679094645 38.141894612722865 5.0772627796348315 35.778640867396035 L 5.0772627796348315 34.903981993459084 C 5.1891201152473885 32.55181663404135 6.168160872805027 30.32536046549624 7.8241788412359945 28.6571671413327 L 10.388083166391148 26.071675723514844 C 12.144509203902428 24.30019505054183 14.530127159815462 23.301499477545153 17.02018623618309 23.295266410316312 C 19.510245312550715 23.28903334308747 21.900797410861397 24.2757727746413 23.666005969182613 26.03843825922571 L 23.699122768069824 26.071675723514844 L 30.32239743970034 32.762816109132494 L 21.128246415265874 42.0586905145645 Z M 33.91291056235426 29.141728904882942 L 27.289635890723744 22.45408790215021 C 27.27394918693076 22.43834404179374 27.258260781956547 22.424347792743845 27.244317046117413 22.408603932387376 C 26.979386062576637 22.14387384876683 26.7074844850543 21.891974814870846 26.42860975788272 21.652901387937845 C 26.276971626411648 21.5234518729269 26.125332643051348 21.397500354043615 25.97020858086702 21.275048113777792 L 25.750595693932283 21.100116338990404 C 25.604186468919984 20.990492427068354 25.456033738328625 20.882034621598567 25.306138572214177 20.774743131115976 C 25.170187149730534 20.680279968977157 25.03249264761244 20.587566769376203 24.89479824938328 20.49660224982332 C 24.757103851154117 20.405637730270435 24.63335319655576 20.32166983379103 24.502630670142 20.249947806753806 L 24.105234402608698 20.017289560600457 C 23.988455609436848 19.950815487015387 23.86993385090837 19.88783898206139 23.75664099883867 19.82486354063551 L 23.59803036182972 19.74439508438813 L 23.55445618635847 19.72515248239164 L 23.52831274489836 19.711158954722528 L 23.491709267297598 19.693664709544965 C 23.371444543412494 19.632438589412054 23.249435784114784 19.574711101438332 23.125685129516427 19.518732934757576 C 21.54453733650093 18.779762899108196 19.842184074172373 18.336914481057715 18.102455564159772 18.211993698179537 L 22.19842805845759 14.071357574648145 L 28.326700735028254 7.877023456119149 L 28.38596097537557 7.8175466259989665 C 29.258822135123765 6.947404952213384 30.294013571131124 6.2584707449828905 31.432344773300148 5.790136043279345 C 32.57067597546917 5.321801341575799 33.78982054785075 5.08325144776521 35.02007334018513 5.088125403276964 C 36.250326132519504 5.092999358788717 37.46755715392137 5.341201971339159 38.602168966173615 5.8185415030929395 C 39.73678077842586 6.29588103484672 40.76652087138638 6.992995441616379 41.632510318636605 7.87002602497283 L 41.632510318636605 7.87002602497283 L 48.28018642214876 14.622392932153128 L 33.91291056235426 29.141728904882942 Z M 61.608655428060274 38.46559303490022 L 61.54939518771295 38.526817554527575 C 59.104867221813464 40.96378722837247 55.79593615106949 42.326393500762556 52.35045164227024 42.3149115390677 C 48.90496713347098 42.303429577372846 45.60512892054868 40.91880140684068 43.17677920372009 38.46559303490022 L 37.54350852220928 32.785558094013915 L 51.881156921386726 18.32569828409252 L 66.72774871136501 33.299857938968366 L 61.608655428060274 38.46559303490022 Z M 69.84417459212716 29.141728904882942 L 55.47863808235453 14.622392932153128 L 62.147231598591375 7.882271195823007 L 62.206491838938696 7.822794365702824 C 63.07980969442323 6.953109466818982 64.11536548968593 6.264718576484488 65.25394477861983 5.796982661967236 C 66.39252406755372 5.329246747449985 67.61179480265191 5.091339697412986 68.84204834298659 5.096863517156944 C 70.07230188332126 5.102387336900902 71.28941031578572 5.351233710778607 72.42377429060652 5.829175116035586 C 73.55813826542732 6.307116521292564 74.58751125646475 7.0047789161405625 75.45304118219973 7.882271195823007 L 85.67205766477619 18.213742054998473 C 82.20060325058552 18.463169991729263 78.93733161391604 19.968661551466475 76.48836401692577 22.45058851926529 L 69.84417459212716 29.141728904882942 Z M 98.67633735835592 35.820625454273944 C 98.67874145176071 35.896699412320366 98.67407035905575 35.97283051936324 98.66239064350172 36.04803462609991 L 98.61881646803046 36.50110995142701 C 98.61497692569633 36.56514811811563 98.60682190668514 36.62885151847429 98.59441237659222 36.69178494532597 C 98.59441237659222 36.75476038675185 98.5769873869896 36.81423718559179 98.56652958511025 36.86671672011336 C 98.24752669905375 38.830725511751055 97.32561122277609 40.645801829025686 95.92941963453188 42.0586905145645 L 95.87015407507134 42.11641832055398 C 94.10750168309534 43.870526532746176 91.72278298976049 44.85006864982051 89.24056029693938 44.83957081657481 C 86.75833760411827 44.82907298332912 84.38192803051707 43.82939643858072 82.63406742750757 42.060441540630485 L 82.63406742750757 42.060441540630485 L 82.62361005092353 42.0709370200382 L 82.63406742750757 42.0586905145645 L 73.43468771478109 32.761067752313565 L 80.07016443213072 26.069927366695907 L 80.10676525017487 26.033190519521852 C 81.87206622808823 24.271629102249246 84.26221390757215 23.285900330652197 86.75156105388018 23.29278934905223 C 89.24090820018822 23.299678367452266 91.62560761173764 24.29862219671655 93.3812027040311 26.069927366695907 L 95.941621680251 28.65191940162884 C 97.70502872141464 30.437656523105566 98.69204819749527 32.85161495177269 98.68679473493997 35.36580177212791 C 98.68679473493997 35.51799241702708 98.68679516023528 35.677181400199494 98.67633735835592 35.820625454273944 Z" fill="rgb(120.00000044703484,100.00000163912773,254.00000005960464)"/>
        </svg>