<svg width="163" height="136" fill="none" xmlns="http://www.w3.org/2000/svg"><path d="M.259 32.347c0-15.085 0-22.628 4.686-27.314C9.632.347 17.175.347 32.26.347h97.806c15.085 0 22.627 0 27.314 4.686 4.686 4.686 4.686 12.229 4.686 27.314v71.367c0 15.085 0 22.627-4.686 27.313-4.687 4.687-12.229 4.687-27.314 4.687H32.259c-15.085 0-22.627 0-27.314-4.687C.26 126.341.26 118.799.26 103.714V32.347Z" fill="url(#a)"/><defs><linearGradient id="a" x1="162.065" y1="135.714" x2="50.592" y2="-32.924" gradientUnits="userSpaceOnUse"><stop stop-color="#4481EB"/><stop offset="0" stop-color="#4481EB" stop-opacity=".56"/><stop offset="1" stop-color="#1AE5EF"/></linearGradient></defs></svg>