<svg width="28" height="21" viewBox="0 0 28 21" fill="none" xmlns="http://www.w3.org/2000/svg">
<path d="M11.7355 0.46875C10.38 0.46875 9.27091 1.57781 9.27091 2.93332V20.1853L14.2001 15.2562H25.2906C26.6462 15.2562 27.7552 14.1471 27.7552 12.7916V2.93332C27.7552 1.57781 26.6462 0.46875 25.2906 0.46875H11.7355ZM4.34176 2.93332C3.60239 2.93332 3.10947 3.42624 3.10947 4.16561C3.10947 4.90498 3.60239 5.3979 4.34176 5.3979H6.80633V2.93332H4.34176ZM14.2001 4.16561H24.0584V6.63019H14.2001V4.16561ZM3.10947 7.86247C2.3701 7.86247 1.87718 8.35539 1.87718 9.09476C1.87718 9.83413 2.3701 10.327 3.10947 10.327H6.80633V7.86247H3.10947ZM14.2001 9.09476H20.3615V11.5593H14.2001V9.09476ZM1.87718 12.7916C1.13781 12.7916 0.644897 13.2845 0.644897 14.0239C0.644897 14.7633 1.13781 15.2562 1.87718 15.2562H6.80633V12.7916H1.87718Z" fill="#30359F" fill-opacity="0.5"/>
</svg>
