<svg width="18" height="19" viewBox="0 0 18 19" fill="none" xmlns="http://www.w3.org/2000/svg">
<path d="M9.94319 15.9871C9.58319 16.2671 9.07319 16.2671 8.71319 15.9871L2.56319 11.2071C2.20319 10.9271 1.70319 10.9271 1.34319 11.2071C0.833193 11.6071 0.833193 12.3771 1.34319 12.7771L8.10319 18.0371C8.82319 18.5971 9.83319 18.5971 10.5632 18.0371L17.3232 12.7771C17.8332 12.3771 17.8332 11.6071 17.3232 11.2071L17.3132 11.1971C16.9532 10.9171 16.4532 10.9171 16.0932 11.1971L9.94319 15.9871ZM10.5732 12.9671L17.3332 7.70714C17.8432 7.30714 17.8432 6.52714 17.3332 6.12714L10.5732 0.867144C9.85319 0.307144 8.84319 0.307144 8.11319 0.867144L1.35319 6.13714C0.843194 6.53714 0.843194 7.31714 1.35319 7.71714L8.11319 12.9771C8.83319 13.5371 9.85319 13.5371 10.5732 12.9671Z" fill="#30359F" fill-opacity="0.5"/>
</svg>
