<svg width="22" height="21" viewBox="0 0 22 21" fill="none" xmlns="http://www.w3.org/2000/svg">
<path d="M3.88013 0.46875C2.93598 0.46875 2.03049 0.843814 1.36287 1.51143C0.695254 2.17905 0.32019 3.08454 0.32019 4.02869V13.887C0.32019 14.8311 0.695254 15.7366 1.36287 16.4042C2.03049 17.0719 2.93598 17.4469 3.88013 17.4469H15.3815C16.3256 17.4469 17.2311 17.0719 17.8987 16.4042C18.5664 15.7366 18.9414 14.8311 18.9414 13.887V4.02869C18.9414 3.08454 18.5664 2.17905 17.8987 1.51143C17.2311 0.843814 16.3256 0.46875 15.3815 0.46875H3.88013ZM6.89239 11.6963V5.67284C6.89244 5.52539 6.93217 5.38067 7.00742 5.25387C7.08266 5.12706 7.19065 5.02285 7.32004 4.95216C7.44944 4.88147 7.59548 4.8469 7.74284 4.85209C7.89019 4.85728 8.03344 4.90204 8.15754 4.98166L13.2159 8.22285C13.2933 8.2724 13.3569 8.34061 13.401 8.42119C13.4451 8.50177 13.4682 8.59215 13.4682 8.684C13.4682 8.77585 13.4451 8.86622 13.401 8.94681C13.3569 9.02739 13.2933 9.0956 13.2159 9.14515L8.15754 12.3863C8.03344 12.466 7.89019 12.5107 7.74284 12.5159C7.59548 12.5211 7.44944 12.4865 7.32004 12.4158C7.19065 12.3451 7.08266 12.2409 7.00742 12.1141C6.93217 11.9873 6.89244 11.8426 6.89239 11.6952V11.6963ZM6.61855 20.1853C6.02048 20.1859 5.43193 20.0356 4.90733 19.7484C4.38273 19.4613 3.93902 19.0464 3.61724 18.5423H15.9292C17.0186 18.5423 18.0634 18.1095 18.8337 17.3392C19.604 16.5689 20.0368 15.5241 20.0368 14.4347V3.7658C20.5409 4.08758 20.9557 4.53129 21.2429 5.05589C21.5301 5.58049 21.6804 6.16904 21.6798 6.76711V14.4347C21.6798 17.6112 19.1057 20.1853 15.9292 20.1853H6.61855Z" fill="#30359F" fill-opacity="0.5"/>
</svg>
