<svg width="39" height="40" viewBox="0 0 39 40" fill="none" xmlns="http://www.w3.org/2000/svg">
<path d="M26.2891 29.3548V27.5964H27.9767V29.3548H26.2891Z" fill="#30359F"/>
<path d="M21.2261 25.8381V24.0798H22.9137V25.8381H21.2261Z" fill="#30359F"/>
<path d="M21.2261 31.1131H24.6014V29.3548H22.9137V27.5964H21.2261V31.1131Z" fill="#30359F"/>
<path d="M27.9766 27.5964V24.0798H29.6642V27.5964H27.9766Z" fill="#30359F"/>
<path d="M29.6642 27.5964H31.3519V31.1131H27.9766V29.3548H29.6642V27.5964Z" fill="#30359F"/>
<path d="M27.9766 22.3212V20.5629H31.3519V24.0796H29.6642V22.3212H27.9766Z" fill="#30359F"/>
<path d="M26.2889 22.3213H24.6012V25.8379H22.9136V27.5963H26.2889V22.3213Z" fill="#30359F"/>
<path d="M21.2261 22.3212V20.5629H24.6014V22.3212H21.2261Z" fill="#30359F"/>
<path d="M11.1001 24.0798H14.4754V27.5964H11.1001V24.0798Z" fill="#30359F"/>
<path d="M17.8505 31.1129H7.72461V20.5629H17.8505V31.1129ZM9.41226 29.3546H16.1628V22.3212H9.41226V29.3546Z" fill="#30359F"/>
<path d="M24.6011 10.013H27.9764V13.5297H24.6011V10.013Z" fill="#30359F"/>
<path d="M31.3519 17.0463H21.2261V6.49634H31.3519V17.0463ZM22.9137 15.288H29.6643V8.25467H22.9137V15.288Z" fill="#30359F"/>
<path d="M11.1001 10.013H14.4754V13.5297H11.1001V10.013Z" fill="#30359F"/>
<path d="M17.8505 17.0463H7.72461V6.49634H17.8505V17.0463ZM9.41226 15.288H16.1628V8.25467H9.41226V15.288Z" fill="#30359F"/>
</svg>
