<svg width="43" height="20" viewBox="0 0 43 20" fill="none" xmlns="http://www.w3.org/2000/svg">
<path d="M42.2015 13.8986V13.8798C42.145 12.4218 41.5404 11.038 40.5074 10.0023L32.2901 1.7699L32.2859 1.76503L32.2496 1.72884C31.71 1.19684 31.0704 0.775825 30.3673 0.489828C29.6642 0.203832 28.9114 0.0584595 28.1518 0.0620143C27.3922 0.0655691 26.6408 0.217981 25.9405 0.510546C25.2401 0.803111 24.6045 1.2301 24.07 1.76712L21.3904 4.45372L18.7079 1.76573L18.6715 1.72884C17.5826 0.656613 16.1106 0.0581437 14.5786 0.0647987C13.0466 0.0714538 11.5799 0.682689 10.5004 1.76433V1.7699L10.4955 1.76503V1.76851L2.27399 10.0051C1.83843 10.442 1.47511 10.9447 1.19751 11.4946V11.4988C1.18492 11.5203 1.17303 11.544 1.16114 11.5684L1.12757 11.6435C1.11288 11.6742 1.09539 11.7131 1.0849 11.7368C1.07441 11.7605 1.06391 11.7827 1.05412 11.8064C1.04433 11.8301 1.02474 11.876 1.01145 11.908C1.00586 11.9212 1.00026 11.9345 0.995366 11.9484L0.969486 12.0138C0.952699 12.0542 0.937311 12.0952 0.922622 12.1363C0.874359 12.2672 0.830992 12.3994 0.79392 12.533C0.779931 12.5866 0.762444 12.65 0.747756 12.7077C0.733067 12.7655 0.720476 12.8219 0.707187 12.8803C0.693897 12.9388 0.682006 13.0007 0.671514 13.0543C0.661022 13.1079 0.651929 13.1615 0.643535 13.2151C0.640649 13.2268 0.638776 13.2386 0.63794 13.2506C0.630945 13.2952 0.62395 13.3425 0.617655 13.3898C0.609961 13.4518 0.602966 13.5144 0.596671 13.577C0.592474 13.6209 0.588977 13.6654 0.58548 13.7093V13.7336C0.58548 13.774 0.578485 13.8144 0.578485 13.8555V13.893C0.567993 13.9731 0.567993 14.0538 0.567993 14.1339C0.567993 14.2264 0.567993 14.3197 0.574988 14.4123C0.576727 14.4333 0.576727 14.4545 0.574988 14.4756C0.574988 14.5076 0.574988 14.541 0.580584 14.5716C0.586179 14.6023 0.588977 14.6336 0.588977 14.6642V14.7004C0.588977 14.7303 0.595272 14.761 0.59877 14.7916C0.59877 14.8097 0.600868 14.8278 0.605065 14.8459C0.609961 14.8835 0.622551 14.9155 0.628847 14.9565C0.635142 14.9976 0.641437 15.0435 0.648432 15.0867C0.647732 15.0913 0.647732 15.096 0.648432 15.1006C0.656126 15.1445 0.66312 15.1841 0.672213 15.2322C0.681306 15.2802 0.691798 15.331 0.700192 15.3714C0.708586 15.4117 0.718378 15.4521 0.727471 15.4925C0.756149 15.6129 0.789024 15.7305 0.825396 15.8467C0.849178 15.9247 0.875058 15.9992 0.902337 16.0771C0.929616 16.1551 0.958994 16.2316 0.99047 16.3082C1.00866 16.352 1.02684 16.3959 1.04573 16.439C1.06461 16.4822 1.0849 16.5281 1.10378 16.5685C1.12267 16.6089 1.14155 16.6485 1.16114 16.6882C1.16114 16.6959 1.16813 16.7035 1.17233 16.7112C1.18912 16.7446 1.2094 16.7808 1.22549 16.8142C1.24158 16.8476 1.25557 16.8706 1.27515 16.9075C1.29474 16.9444 1.31502 16.9771 1.33531 17.014C1.38077 17.0947 1.42903 17.1747 1.48079 17.2534C1.50668 17.2931 1.53256 17.3327 1.55983 17.3717C1.57452 17.3975 1.58991 17.419 1.6053 17.4413C1.63048 17.4817 1.64937 17.5033 1.68364 17.5513C1.71791 17.5993 1.75359 17.6418 1.78786 17.6905C1.82213 17.7392 1.8641 17.7872 1.90327 17.8346C1.94244 17.8819 1.97672 17.9216 2.01449 17.964C2.01938 17.9696 2.02428 17.9758 2.02987 17.9814C2.10612 18.0684 2.18446 18.1547 2.26769 18.2375L2.29707 18.2661C3.12272 19.0835 4.17842 19.632 5.32435 19.8391C5.37472 19.8481 5.42578 19.8572 5.47684 19.8648L5.58595 19.8808L5.6559 19.8899L5.72585 19.8989L5.7881 19.9059C5.89162 19.9163 5.99794 19.9247 6.10146 19.9302C6.17141 19.9365 6.23156 19.9365 6.30151 19.9365H6.45959C6.49803 19.9386 6.53655 19.9386 6.575 19.9365C6.61313 19.933 6.65142 19.9316 6.68971 19.9323C6.78554 19.9275 6.88066 19.9205 6.97579 19.9108C7.02056 19.9066 7.06602 19.901 7.11079 19.8954H7.13457C7.17584 19.8906 7.2185 19.8829 7.25837 19.878C7.29824 19.8732 7.32832 19.8669 7.36819 19.8606L7.4892 19.8391H7.50528L7.57523 19.8251L7.67456 19.8036C7.71303 19.7952 7.7508 19.7862 7.78857 19.7764L7.8816 19.7528L7.91867 19.743L8.02779 19.7117C8.03566 19.71 8.04338 19.7077 8.05087 19.7047C8.08374 19.6957 8.11452 19.6852 8.14879 19.6748C8.18307 19.6644 8.21874 19.6532 8.25301 19.6407C8.28729 19.6282 8.31387 19.6205 8.34324 19.6094L8.38591 19.5941C8.41459 19.5843 8.44327 19.5732 8.47195 19.5621L8.51042 19.5474L8.62023 19.5029C8.6629 19.4855 8.70417 19.4674 8.74614 19.4493L8.76362 19.4409C8.7965 19.4256 8.83357 19.4103 8.86644 19.3936L8.90072 19.3776L9.00004 19.3289L9.01473 19.3212C9.0539 19.3017 9.09237 19.2816 9.13084 19.2614L9.24136 19.1987L9.26584 19.1848C9.30081 19.1653 9.33019 19.1479 9.37076 19.1236C9.41133 19.0992 9.4512 19.0742 9.49107 19.0491C9.53094 19.024 9.5708 18.9983 9.60997 18.9718L9.72679 18.8911L9.8422 18.8076C9.87997 18.7797 9.92334 18.747 9.95551 18.7213C9.98769 18.6955 10.0206 18.6698 10.0527 18.6426L10.066 18.6322C10.0786 18.6217 10.0905 18.612 10.1024 18.6009L10.1653 18.548C10.18 18.5354 10.1954 18.5222 10.2101 18.5083C10.2198 18.5012 10.229 18.4932 10.2374 18.4846L10.3227 18.4074C10.3549 18.3781 10.3962 18.3412 10.4179 18.3169C10.4395 18.2925 10.464 18.271 10.4878 18.2473L14.1908 14.5431L14.1957 14.548L16.4556 16.8079C17.7705 18.1317 19.5518 18.8939 21.4218 18.9329H21.7716C21.887 18.9329 22.0017 18.9245 22.1171 18.9169C22.2325 18.9092 22.3472 18.8988 22.4619 18.8841C22.5361 18.8758 22.606 18.8667 22.676 18.8556C22.8905 18.8241 23.1029 18.7825 23.3132 18.731C23.4265 18.7046 23.5384 18.6732 23.6496 18.6412C23.7608 18.6092 23.8721 18.5716 23.9819 18.5347C24.0294 18.5187 24.0756 18.502 24.1218 18.4846C24.1393 18.4791 24.1567 18.4721 24.1742 18.4651L24.284 18.4227L24.3288 18.4046C24.368 18.3893 24.4065 18.3733 24.4449 18.3566L24.503 18.3315L24.5904 18.2925C24.6247 18.2772 24.6604 18.2612 24.6946 18.2445L24.7177 18.2334L24.8457 18.1714C24.9157 18.1338 24.9807 18.1018 25.0507 18.0642C25.0912 18.0399 25.1318 18.0176 25.1717 17.9946L25.185 17.9877L25.3311 17.9021L25.4843 17.8088C25.534 17.7768 25.5837 17.7448 25.6326 17.7121C26.0159 17.4558 26.3738 17.1638 26.7014 16.84L26.7364 16.8052L28.4529 15.0923H28.4487L28.7879 14.7533L28.7928 14.7484L32.2901 18.2452L32.3188 18.2744L32.3762 18.3294C32.4034 18.3559 32.4307 18.3823 32.4587 18.4074L32.5181 18.4624L32.5496 18.4902C32.5797 18.5173 32.6098 18.5431 32.6399 18.5688L32.6643 18.5897C32.693 18.612 32.7217 18.6364 32.7511 18.6593C32.7578 18.6657 32.7651 18.6715 32.7728 18.6767L32.8525 18.7401C32.8679 18.7526 32.8833 18.7644 32.8994 18.7756C32.928 18.7978 32.9574 18.8187 32.9861 18.8403C33.0148 18.8619 33.0637 18.8953 33.1029 18.9224L33.2232 19.008H33.2281C33.2673 19.0331 33.3064 19.0581 33.3463 19.0825L33.4687 19.1563L33.5925 19.2259C33.6751 19.2725 33.7597 19.315 33.8436 19.3567C33.9276 19.3985 34.0129 19.4382 34.0996 19.4744C34.1367 19.4904 34.1745 19.5064 34.2122 19.521C34.5886 19.6678 34.9798 19.7737 35.379 19.837C35.4419 19.8481 35.5042 19.8579 35.5671 19.8669C35.658 19.8801 35.7497 19.8913 35.8413 19.8996C35.9329 19.908 36.0288 19.9149 36.1211 19.9191L36.2407 19.9233H36.5555L36.6597 19.9191L36.7429 19.9142H36.8968L36.9486 19.9101H36.9562L37.0961 19.8947C37.1437 19.8899 37.1878 19.8822 37.236 19.8767C37.2843 19.8711 37.3305 19.8634 37.3759 19.8551C37.4046 19.8502 37.4333 19.8453 37.462 19.8391C37.479 19.8351 37.4963 19.8321 37.5137 19.83C37.7854 19.7788 38.0529 19.7074 38.3139 19.6163L38.3272 19.6115L38.3475 19.6038C38.4104 19.5829 38.4727 19.5586 38.5342 19.5342L38.6098 19.5036L38.6343 19.4938H38.6406C38.6678 19.4834 38.6951 19.4716 38.7224 19.4597L38.7371 19.4535C38.77 19.4382 38.807 19.4229 38.8399 19.4068L38.8518 19.402C38.8628 19.398 38.8734 19.3929 38.8833 19.3867L38.898 19.3797L38.9763 19.3414C39.019 19.3205 39.0616 19.299 39.1036 19.2767L39.1274 19.2642L39.1519 19.2516C39.2218 19.2161 39.2869 19.1779 39.3526 19.1382C39.3939 19.1138 39.4352 19.0888 39.4757 19.063L39.4904 19.054C39.5023 19.047 39.5135 19.0394 39.5247 19.0317L39.5471 19.0171L39.559 19.0101L39.624 18.967L39.631 18.9621C39.6695 18.9363 39.7079 18.9099 39.7457 18.8827L39.752 18.8786L39.8073 18.8396L39.8331 18.8201C39.8723 18.7916 39.9115 18.7616 39.95 18.7317H39.9542C40.0304 18.6739 40.108 18.6127 40.178 18.5487C40.2153 18.5166 40.2524 18.4839 40.2892 18.4505L40.313 18.4289L40.3675 18.3781L40.4564 18.2918L40.476 18.2723L40.5116 18.2375C40.5718 18.177 40.6298 18.1164 40.6865 18.0538C40.6977 18.0427 40.7075 18.0315 40.718 18.0204C40.7501 17.9842 40.7823 17.9508 40.8138 17.9104L40.818 17.9062L40.8586 17.8575C40.8626 17.8536 40.8662 17.8492 40.8691 17.8443C40.8907 17.8185 40.9117 17.7928 40.9327 17.7663L40.9509 17.7427C40.9726 17.7162 40.9936 17.6891 41.0138 17.6626L41.0299 17.6418C41.0593 17.6042 41.088 17.5659 41.1153 17.5269C41.1649 17.4608 41.2104 17.3961 41.2552 17.3265C41.2803 17.2903 41.3027 17.2569 41.3251 17.2207L41.3517 17.1782C41.3713 17.1462 41.3909 17.1142 41.4097 17.0815L41.423 17.0585C41.4356 17.0383 41.4468 17.0181 41.4587 16.9979L41.479 16.9611L41.4916 16.9381C41.5105 16.9068 41.5286 16.8685 41.5461 16.8372L41.558 16.8142C41.5755 16.7836 41.593 16.7446 41.6091 16.714C41.6252 16.6833 41.6315 16.6673 41.6427 16.6444C41.6539 16.6214 41.6664 16.5943 41.6755 16.5748C41.6846 16.5553 41.6937 16.5365 41.7021 16.517L41.7336 16.4474C41.7518 16.4049 41.7707 16.3618 41.7882 16.3193V16.3159L41.7938 16.3019C41.8196 16.2442 41.8427 16.1857 41.8637 16.1265C41.8903 16.0546 41.9155 15.9822 41.9392 15.9094C41.9588 15.8495 41.9763 15.7904 41.9931 15.7305C42.0036 15.6922 42.0134 15.6609 42.0232 15.6226C42.0358 15.5753 42.0477 15.528 42.0588 15.4799C42.0791 15.3971 42.0966 15.3136 42.1134 15.2301C42.1386 15.1006 42.1589 14.9698 42.175 14.8389V14.8222L42.1854 14.7227V14.6879C42.1919 14.6431 42.1958 14.598 42.1973 14.5529C42.2022 14.4833 42.2085 14.4241 42.2085 14.3441V14.1039C42.2085 14.0336 42.2064 13.9661 42.2015 13.8986ZM9.04691 16.7961L9.01823 16.8246C8.31039 17.5215 7.35335 17.9101 6.35761 17.9049C5.36188 17.8997 4.40901 17.5011 3.70859 16.7968C3.04262 16.1283 2.64957 15.2377 2.60553 14.2974V13.9494C2.65042 13.0135 3.04332 12.1277 3.70789 11.464L4.7368 10.4352C5.44167 9.73042 6.39903 9.33306 7.39831 9.33058C8.39759 9.3281 9.35694 9.7207 10.0653 10.422L10.0786 10.4352L12.7366 13.0975L9.04691 16.7961ZM14.1775 11.6568L11.5195 8.9959C11.5132 8.98963 11.5069 8.98407 11.5013 8.9778C11.395 8.87247 11.2859 8.77225 11.174 8.67712C11.1131 8.62562 11.0523 8.57551 10.99 8.52679L10.9019 8.45718C10.8431 8.41357 10.7837 8.37041 10.7235 8.32773C10.669 8.29014 10.6137 8.25325 10.5584 8.21706C10.5032 8.18087 10.4535 8.14746 10.4011 8.11892L10.2416 8.02635C10.1947 7.99991 10.1472 7.97485 10.1017 7.94979L10.038 7.91778L10.0206 7.91012L10.0101 7.90455L9.99538 7.89759C9.94712 7.87323 9.89815 7.85026 9.84849 7.82799C9.21397 7.53397 8.5308 7.35777 7.83263 7.30807L9.47638 5.66061L11.9357 3.19603L11.9595 3.17237C12.3098 2.82616 12.7252 2.55205 13.182 2.36571C13.6388 2.17937 14.1281 2.08446 14.6218 2.08639C15.1155 2.08833 15.604 2.18709 16.0593 2.37701C16.5146 2.56693 16.9279 2.8443 17.2754 3.19325L19.9432 5.87985L14.1775 11.6568ZM25.292 15.3665L25.2682 15.3909C24.2872 16.3605 22.9593 16.9026 21.5766 16.898C20.1939 16.8935 18.8696 16.3426 17.8951 15.3665L15.6345 13.1065L21.3883 7.35331L27.3463 13.3112L25.292 15.3665ZM28.5969 11.6568L22.832 5.87985L25.5081 3.19812L25.5319 3.17445C25.8824 2.82843 26.2979 2.55453 26.7549 2.36843C27.2118 2.18233 27.7011 2.08767 28.1948 2.08987C28.6885 2.09207 29.1769 2.19108 29.6322 2.38124C30.0874 2.5714 30.5005 2.84899 30.8478 3.19812L34.9488 7.30876C33.5557 7.40801 32.2461 8.00701 31.2633 8.9945L28.5969 11.6568ZM40.1675 14.3141C40.1685 14.3444 40.1666 14.3747 40.1619 14.4046L40.1444 14.5849C40.1429 14.6104 40.1396 14.6357 40.1346 14.6607C40.1346 14.6858 40.1276 14.7095 40.1234 14.7303C39.9954 15.5118 39.6254 16.2339 39.0651 16.7961L39.0414 16.8191C38.334 17.517 37.377 17.9067 36.3809 17.9025C35.3847 17.8984 34.431 17.5006 33.7296 16.7968L33.7254 16.801L33.7296 16.7961L30.0378 13.0968L32.7007 10.4346L32.7154 10.4199C33.4238 9.71905 34.383 9.32686 35.382 9.3296C36.381 9.33234 37.338 9.72979 38.0425 10.4346L39.07 11.4619C39.7777 12.1724 40.1738 13.1328 40.1717 14.1332C40.1717 14.1937 40.1717 14.2571 40.1675 14.3141Z" fill="white"/>
</svg>
