<svg width="20" height="20" viewBox="0 0 20 20" fill="none" xmlns="http://www.w3.org/2000/svg">
<path d="M16.6665 2.5H3.33317C2.414 2.5 1.6665 3.2475 1.6665 4.16667V15.8333C1.6665 16.7525 2.414 17.5 3.33317 17.5H16.6665C17.5857 17.5 18.3332 16.7525 18.3332 15.8333V4.16667C18.3332 3.2475 17.5857 2.5 16.6665 2.5ZM16.6673 7.5C16.6665 7.5 16.6665 7.5 16.6673 7.5H16.2798L14.0573 4.16667H16.6665L16.6673 7.5ZM7.9465 7.5L5.724 4.16667H7.88734L10.1098 7.5H7.9465ZM12.1132 7.5L9.89067 4.16667H12.054L14.2765 7.5H12.1132ZM3.33317 4.16667H3.72067L5.94317 7.5H3.33317V4.16667ZM3.33317 15.8333V9.16667H16.6665L16.6682 15.8333H3.33317Z" fill="#30359F"/>
<path d="M8.3335 15L12.9168 12.5L8.3335 10V15Z" fill="#30359F"/>
</svg>
