<svg width="22" height="22" viewBox="0 0 22 22" fill="none" xmlns="http://www.w3.org/2000/svg">
<path d="M19.9808 1.79468L19.9808 1.79463L19.9776 1.79179C19.2669 1.16004 18.3416 0.823716 17.391 0.851605C16.4405 0.879495 15.5365 1.26949 14.8639 1.94182L14.8639 1.94184L2.89596 13.9098C2.60052 14.2051 2.38727 14.5724 2.27729 14.9754L2.27728 14.9755L0.883276 20.0915L1.02792 20.1309L0.883276 20.0915C0.841597 20.2444 0.841065 20.4057 0.881734 20.5589C0.922404 20.7122 1.00283 20.852 1.11488 20.9641C1.22692 21.0763 1.36661 21.1569 1.51981 21.1977C1.673 21.2385 1.83426 21.2382 1.98728 21.1967L1.98747 21.1966L7.1024 19.8016C7.50577 19.6918 7.87346 19.4786 8.16906 19.183L8.063 19.0769L8.16907 19.183L20.1371 7.21498C20.8095 6.54259 21.1997 5.63868 21.2278 4.68812C21.2559 3.73757 20.9198 2.8122 20.2881 2.10128L20.2882 2.10123L20.2849 2.09772L20.1399 1.94472L20.1401 1.94456L20.1338 1.93868L19.9808 1.79468ZM16.7279 8.07788L6.89594 17.9088L6.89565 17.9091C6.82215 17.983 6.73067 18.0365 6.63023 18.0643C6.63017 18.0643 6.63011 18.0643 6.63005 18.0643L3.03378 19.0451L4.01471 15.4484L4.01473 15.4483C4.04215 15.3476 4.09537 15.2558 4.16913 15.1819L14.001 5.35006L16.7279 8.07788ZM5.63207 10.184L5.88813 9.92791H5.526H5.525H1.75C1.51131 9.92791 1.28239 10.0227 1.1136 10.1915C0.944821 10.3603 0.85 10.5892 0.85 10.8279C0.85 11.0666 0.944821 11.2955 1.1136 11.4643C1.28239 11.6331 1.51131 11.7279 1.75 11.7279H4.026H4.08813L4.13207 11.684L5.63207 10.184ZM9.63207 6.18397L9.88813 5.92791H9.526H9.525H1.75C1.51131 5.92791 1.28239 6.02273 1.1136 6.19151C0.944821 6.36029 0.85 6.58921 0.85 6.82791C0.85 7.0666 0.944821 7.29552 1.1136 7.4643C1.28239 7.63308 1.5113 7.72791 1.75 7.72791H8.026H8.08813L8.13207 7.68397L9.63207 6.18397ZM18.864 5.94182L18.8639 5.94184L18 6.80576L15.2731 4.07792L16.137 3.21399C16.1371 3.21398 16.1371 3.21398 16.1371 3.21397C16.3162 3.03493 16.5288 2.89292 16.7628 2.79604C16.9968 2.69916 17.2476 2.64932 17.5008 2.64937C17.7541 2.64941 18.0049 2.69933 18.2388 2.79629C18.4728 2.89325 18.6854 3.03534 18.8644 3.21445C19.0435 3.39357 19.1855 3.60619 19.2824 3.84019C19.3792 4.07419 19.4291 4.32497 19.429 4.57823C19.429 4.83149 19.3791 5.08226 19.2821 5.31623C19.1852 5.55019 19.0431 5.76277 18.864 5.94182ZM13.6321 2.18397L13.8881 1.92791H13.526H13.525H1.75C1.51131 1.92791 1.28239 2.02273 1.1136 2.19151C0.944821 2.36029 0.85 2.58921 0.85 2.82791C0.85 3.0666 0.944821 3.29552 1.1136 3.4643C1.28239 3.63308 1.51131 3.72791 1.75 3.72791H12.026H12.0881L12.1321 3.68397L13.6321 2.18397Z" fill="#C7C9D9" stroke="#C7C9D9" stroke-width="0.3"/>
</svg>
