<svg width="19" height="19" viewBox="0 0 19 19" fill="none" xmlns="http://www.w3.org/2000/svg">
<path fill-rule="evenodd" clip-rule="evenodd" d="M14.25 14.3721C13.4227 14.3721 12.75 13.6993 12.75 12.8721C12.75 12.0448 13.4227 11.3721 14.25 11.3721C15.0773 11.3721 15.75 12.0448 15.75 12.8721C15.75 13.6993 15.0773 14.3721 14.25 14.3721ZM5.25 11.3721C6.07725 11.3721 6.75 12.0448 6.75 12.8721C6.75 13.6993 6.07725 14.3721 5.25 14.3721C4.42275 14.3721 3.75 13.6993 3.75 12.8721C3.75 12.0448 4.42275 11.3721 5.25 11.3721ZM9.75 1.62207C5.6145 1.62207 2.25 5.10957 2.25 9.39657V12.8721C2.25 14.5266 3.5955 15.8721 5.25 15.8721C6.9045 15.8721 8.25 14.5266 8.25 12.8721C8.25 11.2176 6.9045 9.87207 5.25 9.87207C4.701 9.87207 4.19325 10.0311 3.75 10.2898V9.39657C3.75 5.93682 6.44175 3.12207 9.75 3.12207C13.0582 3.12207 15.75 5.93682 15.75 9.39657V10.2898C15.3068 10.0311 14.799 9.87207 14.25 9.87207C12.5955 9.87207 11.25 11.2176 11.25 12.8721C11.25 14.5266 12.5955 15.8721 14.25 15.8721C15.9045 15.8721 17.25 14.5266 17.25 12.8721V9.39657C17.25 5.10957 13.8855 1.62207 9.75 1.62207Z" fill="#30359F"/>
</svg>
