<svg id="b696f84e-2698-4848-9e92-f9955e7854ed" data-name="Layer 1" xmlns="http://www.w3.org/2000/svg" width="110.4" height="105.6" viewBox="0 0 110.4 105.6"><path d="M39.3,65.5l1.3,1.4a3.6,3.6,0,0,1,1.1,2.6l.4,10.3,22.6.2V74.4s6.8-1.4,7.9-10.3h4.8c.3,0,.4-.2.3-.5l-3.3-5.5c-.8-1.7-2.3-3.5-2.4-5.4a19.9,19.9,0,0,0-2.8-10.5c-.9-1.6-5.6-7.7-15.9-7.5S35.8,42.5,35.5,51.7c0,.3-.1.7-.1,1.1S35,60.6,39.3,65.5Z" fill="#fff" stroke="#1d1d1b" stroke-miterlimit="10" stroke-width="3"/><circle cx="52.5" cy="49.1" r="8.3" fill="#fff" stroke="#1d1d1b" stroke-miterlimit="10" stroke-width="3"/><line x1="55" y1="30.4" x2="55" y2="17.6" fill="#fff" stroke="#1d1d1b" stroke-miterlimit="10" stroke-width="3"/><line x1="69.7" y1="36.4" x2="77.4" y2="26.2" fill="#fff" stroke="#1d1d1b" stroke-miterlimit="10" stroke-width="3"/><line x1="78.2" y1="47.5" x2="89.2" y2="40.7" fill="#fff" stroke="#1d1d1b" stroke-miterlimit="10" stroke-width="3"/><line x1="39.8" y1="35.5" x2="31.8" y2="25.1" fill="#fff" stroke="#1d1d1b" stroke-miterlimit="10" stroke-width="3"/><line x1="29.9" y1="47.3" x2="18.3" y2="41.1" fill="#fff" stroke="#1d1d1b" stroke-miterlimit="10" stroke-width="3"/></svg>