<svg width="19" height="19" viewBox="0 0 19 19" fill="none" xmlns="http://www.w3.org/2000/svg">
<path fill-rule="evenodd" clip-rule="evenodd" d="M6.00015 8.37152C6.00015 7.95752 6.33615 7.62152 6.75015 7.62152C7.16415 7.62152 7.50015 7.95752 7.50015 8.37152C7.50015 8.78552 7.16415 9.12152 6.75015 9.12152C6.33615 9.12152 6.00015 8.78552 6.00015 8.37152ZM9.75015 7.62152C9.33615 7.62152 9.00015 7.95752 9.00015 8.37152C9.00015 8.78552 9.33615 9.12152 9.75015 9.12152C10.1642 9.12152 10.5002 8.78552 10.5002 8.37152C10.5002 7.95752 10.1642 7.62152 9.75015 7.62152ZM12.7502 7.62152C12.3362 7.62152 12.0002 7.95752 12.0002 8.37152C12.0002 8.78552 12.3362 9.12152 12.7502 9.12152C13.1642 9.12152 13.5002 8.78552 13.5002 8.37152C13.5002 7.95752 13.1642 7.62152 12.7502 7.62152ZM15.674 9.3427C15.2937 11.7832 13.3265 13.8074 10.8897 14.2642C9.71295 14.4862 8.51445 14.3594 7.42695 13.8989C7.1187 13.7684 6.79995 13.7024 6.4872 13.7024C6.3447 13.7024 6.2037 13.7159 6.06495 13.7437L3.95595 14.1652L4.3782 12.0524C4.4667 11.6137 4.4127 11.1442 4.22295 10.6949C3.76245 9.60745 3.63645 8.4097 3.8577 7.2322C4.31445 4.79545 6.33795 2.8282 8.7792 2.44795C10.7217 2.1457 12.6215 2.7577 13.9925 4.1287C15.3642 5.50045 15.9769 7.40095 15.674 9.3427ZM15.0537 3.0682C13.3399 1.3552 10.97 0.590949 8.5482 0.965199C5.49045 1.4422 2.95545 3.9052 2.3832 6.95545C2.1072 8.42395 2.2662 9.91945 2.84145 11.2792C2.9142 11.4524 2.9367 11.6137 2.9082 11.7584L2.2647 14.9744C2.2152 15.2204 2.29245 15.4747 2.4702 15.6517C2.61195 15.7942 2.8032 15.8714 3.00045 15.8714C3.0492 15.8714 3.09795 15.8669 3.14745 15.8572L6.3597 15.2144C6.5442 15.1792 6.7227 15.2309 6.84195 15.2804C8.2032 15.8557 9.6987 16.0139 11.1657 15.7387C14.2167 15.1664 16.6797 12.6314 17.1567 9.5737C17.5332 7.15345 16.7675 4.78195 15.0537 3.0682Z" fill="#30359F"/>
</svg>
