<svg id="f87a12bb-20d5-4bee-b130-c6562fcc0b64" data-name="Layer 1" xmlns="http://www.w3.org/2000/svg" width="50" height="50" viewBox="0 0 50 50"><path d="M34.4,49.5l-19.2-.2L14.8,40a1.5,1.5,0,0,0-.4-1l-1-1.2h0a15,15,0,0,1-3.1-10.7v-.9A14.5,14.5,0,0,1,24.7,11.9c8.7-.2,12.4,5.8,12.8,6.5a17.6,17.6,0,0,1,2.2,8.7,7.2,7.2,0,0,0,.9,2.4,4.1,4.1,0,0,1,.6,1.1l2.4,4.2a1.7,1.7,0,0,1,0,1.7,1.6,1.6,0,0,1-1.5.9H39.9a10.4,10.4,0,0,1-5.5,7.5ZM18,46.3H31.4V42.5l1.1-.3c.2,0,4-1,4.6-6.6l.2-1.4h2.6L38.6,32,38,30.9a8.1,8.1,0,0,1-1.3-3.7,14.1,14.1,0,0,0-1.9-7.3c-.3-.6-3-5.2-10.1-5A11.6,11.6,0,0,0,13.3,26.3h0a2.8,2.8,0,0,1-.1.9,12.4,12.4,0,0,0,2.5,8.6l.9,1.1a4.3,4.3,0,0,1,1.2,2.9Zm23-10Z" fill="#1d1d1b"/><path d="M24.3,31.7A7.7,7.7,0,1,1,32,24,7.7,7.7,0,0,1,24.3,31.7Zm0-12.4A4.7,4.7,0,1,0,29,24,4.7,4.7,0,0,0,24.3,19.3Z" fill="#1d1d1b"/><rect x="24.3" y="0.9" width="3" height="9.23" fill="#1d1d1b"/><rect x="33.8" y="9.3" width="9.3" height="3" transform="translate(7.7 36.3) rotate(-55.4)" fill="#1d1d1b"/><rect x="40.9" y="18.8" width="9" height="3" transform="translate(-3.6 28.8) rotate(-33.9)" fill="#1d1d1b"/><rect x="11.3" y="5.3" width="3" height="9.48" transform="translate(-3.5 9.2) rotate(-35.2)" fill="#1d1d1b"/><rect x="3.3" y="15.9" width="3" height="9.11" transform="translate(-15.2 14.3) rotate(-59.7)" fill="#1d1d1b"/></svg>