<svg width="19" height="19" viewBox="0 0 19 19" fill="none" xmlns="http://www.w3.org/2000/svg">
<path fill-rule="evenodd" clip-rule="evenodd" d="M14.25 11.0616C13.953 11.1943 13.3687 11.3721 12.375 11.3721C11.532 11.3721 10.7992 11.0848 10.0237 10.7811C9.15225 10.4398 8.25075 10.0866 7.125 10.0866C6.33225 10.0866 5.718 10.1818 5.25 10.3101V9.12207V4.18407C5.547 4.05132 6.13275 3.87207 7.125 3.87207C7.968 3.87207 8.70075 4.15932 9.47625 4.46307C10.3478 4.80432 11.2492 5.15757 12.375 5.15757C13.0785 5.15757 13.707 5.08182 14.25 4.93257V11.0616ZM15.201 3.63207C14.8545 3.38157 14.406 3.31032 14.0017 3.44232C13.5697 3.58257 13.0072 3.65757 12.375 3.65757C11.532 3.65757 10.7992 3.37032 10.0237 3.06657C9.15225 2.72532 8.25075 2.37207 7.125 2.37207C4.95975 2.37207 4.12125 3.08607 3.975 3.23007C3.831 3.37032 3.75 3.56382 3.75 3.76482V9.12207V11.4793V15.1221C3.75 15.5368 4.08525 15.8721 4.5 15.8721C4.91475 15.8721 5.25 15.5368 5.25 15.1221V11.8986C5.54625 11.7666 6.12975 11.5866 7.125 11.5866C7.968 11.5866 8.70075 11.8738 9.47625 12.1776C10.3478 12.5188 11.2492 12.8721 12.375 12.8721C13.7318 12.8721 14.5673 12.5886 15.0308 12.3508C15.4748 12.1206 15.75 11.6736 15.75 11.1838V4.70157C15.75 4.28157 15.5452 3.88182 15.201 3.63207Z" fill="#30359F"/>
</svg>
