<svg id="b872355d-f538-4f97-b2e8-c4120c6bbf55" data-name="Layer 1" xmlns="http://www.w3.org/2000/svg" width="98.4" height="91.2" viewBox="0 0 98.4 91.2"><path d="M59.3,44.8l8.6-8.5a2,2,0,0,1,1.6-.6c10-.2,8.6-10,8.6-10l-5,5-4.8-1.4-1.7-5.1,4.7-4.7c-2.9-1-6.5,1.2-8.1,3.2a7.7,7.7,0,0,0-1.6,5.5,1.5,1.5,0,0,1-.5,1.4l-8.5,8.5" fill="#fff" stroke="#1d1d1b" stroke-miterlimit="10" stroke-width="2"/><path d="M43.5,47.3l-8.2,8.1a2.2,2.2,0,0,1-1.4.7c-10,.2-8.7,10.1-8.7,10.1l5-5L35,62.5l1.8,5.1L32,72.4c2.9.9,6.5-1.2,8.2-3.2s1.3-4.8,1.2-5.8a2,2,0,0,1,.5-1.5l8.2-8" fill="#fff" stroke="#1d1d1b" stroke-miterlimit="10" stroke-width="2"/><path d="M26.8,36.1H73.6a0,0,0,0,1,0,0V49a0,0,0,0,1,0,0H26.8a4.6,4.6,0,0,1-4.6-4.6V40.6a4.6,4.6,0,0,1,4.6-4.6Z" transform="translate(44.1 -21.4) rotate(45)" fill="#fff" stroke="#1d1d1b" stroke-miterlimit="10" stroke-width="2"/><polyline points="61.5 65.3 76.9 71.5 70.6 56.1" fill="#fff" stroke="#1d1d1b" stroke-miterlimit="10" stroke-width="2"/><line x1="71.9" y1="69.4" x2="74.8" y2="66.4" fill="#fff" stroke="#1d1d1b" stroke-miterlimit="10" stroke-width="2"/><line x1="31" y1="34.8" x2="40.2" y2="25.7" fill="#fff" stroke="#1d1d1b" stroke-miterlimit="10" stroke-width="2"/><line x1="37.6" y1="28.3" x2="68.1" y2="58.7" fill="#fff" stroke="#1d1d1b" stroke-miterlimit="10" stroke-width="2"/><line x1="34.1" y1="31.8" x2="64.5" y2="62.2" fill="#fff" stroke="#1d1d1b" stroke-miterlimit="10" stroke-width="2"/></svg>