<svg id="e5d9c1db-d67d-4447-8c68-52fc431b5d00" data-name="Layer 1" xmlns="http://www.w3.org/2000/svg" width="50" height="50" viewBox="0 0 50 50"><path d="M42.4,33.3l.2-.2-9-9L39.8,18h.5c2.9-.1,5.1-1,6.6-2.8s1.9-7,1.9-7.2l-.4-2.5-5.2,5.2a.6.6,0,0,1-.7.2l-1.9-.5c-.3-.1-.5-.3-.5-.5l-.8-2.2a.7.7,0,0,1,.2-.7l4.6-4.7-1.9-.6c-3.2-1-6.8,1.2-8.4,3.2a7.7,7.7,0,0,0-1.5,5.6h-.1l-6.1,6.2L12.7,3.2a5.7,5.7,0,0,0-8,0L2.8,5.1a5.7,5.7,0,0,0,0,8L16.3,26.5l-6.2,6.1a.4.4,0,0,1-.3.2c-2.9.1-5.2,1-6.7,2.8s-1.9,7.1-1.9,7.3l.3,2.5,5.3-5.2a.6.6,0,0,1,.7-.2l1.9.5a.8.8,0,0,1,.5.5l.8,2.2a.7.7,0,0,1-.2.7L5.9,48.5l1.9.7a5,5,0,0,0,1.7.2A9.3,9.3,0,0,0,16.1,46c1.7-2.1,1.4-4.7,1.3-5.8s.1-.3.2-.3l6-6L32.7,43v-.2L49,49.4ZM34,12.4a2.9,2.9,0,0,0,.7-2.3,6.3,6.3,0,0,1,1.1-3.8,8.3,8.3,0,0,1,2.7-2l-.8.8A3.5,3.5,0,0,0,37,8.5l.7,2.1a3.5,3.5,0,0,0,2.2,2.1l1.9.5a3.3,3.3,0,0,0,3.2-.8l1.1-1.1A5.7,5.7,0,0,1,45,13.5a6.2,6.2,0,0,1-4.7,1.9,3.2,3.2,0,0,0-2.3.9l-6.2,6.1-3.9-4ZM4.6,11.3a3,3,0,0,1,0-4.4L6.5,5a3.1,3.1,0,0,1,4.4,0l1.9,1.9L6.5,13.2ZM15.9,38.1a2.7,2.7,0,0,0-.9,2.4c0,.7.2,2.7-.8,4a8.3,8.3,0,0,1-2.7,2l.8-.8a3.5,3.5,0,0,0,.7-3.4l-.7-2.1a3.5,3.5,0,0,0-2.2-2.1l-2-.5a3,3,0,0,0-3.1.8L3.9,39.5a5.7,5.7,0,0,1,1.2-2.3,6.2,6.2,0,0,1,4.7-1.9,2.9,2.9,0,0,0,2.1-.9L18,28.3l3.9,3.8ZM8.3,15l6.3-6.3L39,33.1l-6.3,6.3ZM40.5,35.2l3.9,9.6-9.6-3.9Z" fill="#1d1d1b"/></svg>