<svg width="18" height="19" viewBox="0 0 18 19" fill="none" xmlns="http://www.w3.org/2000/svg">
<path d="M9.94319 16.4142C9.58319 16.6942 9.07319 16.6942 8.71319 16.4142L2.56319 11.6342C2.20319 11.3542 1.70319 11.3542 1.34319 11.6342C0.833193 12.0342 0.833193 12.8042 1.34319 13.2042L8.10319 18.4642C8.82319 19.0242 9.83319 19.0242 10.5632 18.4642L17.3232 13.2042C17.8332 12.8042 17.8332 12.0342 17.3232 11.6342L17.3132 11.6242C16.9532 11.3442 16.4532 11.3442 16.0932 11.6242L9.94319 16.4142ZM10.5732 13.3942L17.3332 8.13421C17.8432 7.73421 17.8432 6.95421 17.3332 6.55421L10.5732 1.29421C9.85319 0.734207 8.84319 0.734207 8.11319 1.29421L1.35319 6.56421C0.843194 6.96421 0.843194 7.74421 1.35319 8.14421L8.11319 13.4042C8.83319 13.9642 9.85319 13.9642 10.5732 13.3942Z" fill="#30359F"/>
</svg>
