<svg width="22" height="21" viewBox="0 0 22 21" fill="none" xmlns="http://www.w3.org/2000/svg">
<path d="M3.88013 0.468994C2.93598 0.468994 2.03049 0.844058 1.36287 1.51168C0.695254 2.1793 0.32019 3.08478 0.32019 4.02894V13.8872C0.32019 14.8314 0.695254 15.7369 1.36287 16.4045C2.03049 17.0721 2.93598 17.4472 3.88013 17.4472H15.3815C16.3256 17.4472 17.2311 17.0721 17.8987 16.4045C18.5664 15.7369 18.9414 14.8314 18.9414 13.8872V4.02894C18.9414 3.08478 18.5664 2.1793 17.8987 1.51168C17.2311 0.844058 16.3256 0.468994 15.3815 0.468994H3.88013ZM6.89239 11.6965V5.67308C6.89244 5.52563 6.93217 5.38091 7.00742 5.25411C7.08266 5.12731 7.19065 5.02309 7.32004 4.9524C7.44944 4.88171 7.59548 4.84715 7.74284 4.85234C7.89019 4.85753 8.03344 4.90228 8.15754 4.9819L13.2159 8.22309C13.2933 8.27264 13.3569 8.34085 13.401 8.42143C13.4451 8.50202 13.4682 8.59239 13.4682 8.68424C13.4682 8.77609 13.4451 8.86647 13.401 8.94705C13.3569 9.02764 13.2933 9.09584 13.2159 9.14539L8.15754 12.3866C8.03344 12.4662 7.89019 12.511 7.74284 12.5161C7.59548 12.5213 7.44944 12.4868 7.32004 12.4161C7.19065 12.3454 7.08266 12.2412 7.00742 12.1144C6.93217 11.9876 6.89244 11.8429 6.89239 11.6954V11.6965ZM6.61855 20.1856C6.02048 20.1861 5.43193 20.0359 4.90733 19.7487C4.38273 19.4615 3.93902 19.0467 3.61724 18.5425H15.9292C17.0186 18.5425 18.0634 18.1098 18.8337 17.3394C19.604 16.5691 20.0368 15.5243 20.0368 14.4349V3.76605C20.5409 4.08783 20.9557 4.53154 21.2429 5.05614C21.5301 5.58074 21.6804 6.16929 21.6798 6.76735V14.4349C21.6798 17.6115 19.1057 20.1856 15.9292 20.1856H6.61855Z" fill="#30359F"/>
</svg>
